<?xml version="1.0" encoding="UTF-8"?>
<!DOCTYPE svg PUBLIC "-//W3C//DTD SVG 1.1//EN" "http://www.w3.org/Graphics/SVG/1.1/DTD/svg11.dtd">
<!-- Creator: CorelDRAW 2018 (64-Bit) -->
<svg xmlns="http://www.w3.org/2000/svg" xml:space="preserve" width="50px" height="50px" version="1.1" style="shape-rendering:geometricPrecision; text-rendering:geometricPrecision; image-rendering:optimizeQuality; fill-rule:evenodd; clip-rule:evenodd"
viewBox="0 0 5.61 5.64"
 xmlns:xlink="http://www.w3.org/1999/xlink">
 <defs>
  <style type="text/css">
   <![CDATA[
    .str0 {stroke:#9D2B84;stroke-width:0.18;stroke-miterlimit:22.9256;stroke-opacity:0.200000}
    .fil0 {fill:#9F2883;fill-rule:nonzero}
    .fil1 {fill:url(#id0);fill-opacity:0.200000}
   ]]>
  </style>
  <linearGradient id="id0" gradientUnits="userSpaceOnUse" x1="0.99" y1="3.3" x2="4.01" y2="0.02">
   <stop offset="0" style="stop-opacity:1; stop-color:#2B2A29"/>
   <stop offset="0.639216" style="stop-opacity:1; stop-color:#949493"/>
   <stop offset="1" style="stop-opacity:1; stop-color:#FEFEFE"/>
  </linearGradient>
 </defs>
 <g id="Слой_x0020_1">
  <metadata id="CorelCorpID_0Corel-Layer"/>
  <g id="_2225384511424">
   <g id="history">
    <path class="fil0" d="M2.88 4.44c-0.59,0 -1.12,-0.32 -1.39,-0.82l-0.41 0.23 0.01 -0.94 1.11 0 -0.48 0.48c0.23,0.42 0.65,0.71 1.16,0.71 0.7,0 1.28,-0.58 1.28,-1.28 0,-0.69 -0.58,-1.27 -1.28,-1.27 -0.56,0 -1.02,0.35 -1.21,0.85l-0.35 0c0.18,-0.68 0.81,-1.19 1.56,-1.19 0.9,0 1.62,0.73 1.62,1.61 0,0.89 -0.73,1.62 -1.62,1.62z"/>
    <path class="fil0" d="M2.9 4.78c-0.72,0 -1.36,-0.39 -1.69,-0.99l-0.47 0.48 0 -1.34 1.34 0 -0.58 0.57c0.27,0.52 0.78,0.87 1.4,0.87 0.84,0 1.54,-0.7 1.54,-1.55 0,-0.84 -0.7,-1.54 -1.54,-1.54 -0.68,0 -1.28,0.52 -1.51,1.12l-0.49 0c0.17,-0.85 1.09,-1.53 2,-1.53 1.09,0 1.96,0.88 1.96,1.95 0,1.08 -0.89,1.96 -1.96,1.96z"/>
    <path class="fil0" d="M2.9 4.86c-0.75,0 -1.41,-0.41 -1.75,-1.03l-0.41 0.44 -0.01 -1.36 1.32 0 -0.6 0.62c0.28,0.54 0.81,0.9 1.45,0.9 0.88,0 1.61,-0.73 1.61,-1.61 0,-0.87 -0.73,-1.6 -1.61,-1.6 -0.7,0 -1.28,0.45 -1.52,1.07l-0.45 0c0.24,-0.86 1.03,-1.5 1.97,-1.5 1.14,0 2.04,0.92 2.04,2.03 0,1.12 -0.92,2.04 -2.04,2.04z"/>
   </g>
  </g>
  <path class="fil1 str0" d="M2.81 0.09c-1.5,0 -2.72,1.22 -2.72,2.73 0,1.51 1.22,2.73 2.72,2.73 1.5,0 2.72,-1.22 2.72,-2.73 0,-1.51 -1.22,-2.73 -2.72,-2.73z"/>
 </g>
</svg>
