<?xml version="1.0" encoding="UTF-8"?>
<!DOCTYPE svg PUBLIC "-//W3C//DTD SVG 1.1//EN" "http://www.w3.org/Graphics/SVG/1.1/DTD/svg11.dtd">
<!-- Creator: CorelDRAW 2018 (64-Bit) -->
<svg xmlns="http://www.w3.org/2000/svg" xml:space="preserve" width="32px" height="32px" version="1.1" style="shape-rendering:geometricPrecision; text-rendering:geometricPrecision; image-rendering:optimizeQuality; fill-rule:evenodd; clip-rule:evenodd"
viewBox="0 0 12.72 12.72"
 xmlns:xlink="http://www.w3.org/1999/xlink">
 <defs>
  <style type="text/css">
   <![CDATA[
    .fil0 {fill:#16ADE1}
    .fil1 {fill:#1B3954}
   ]]>
  </style>
 </defs>
 <g id="Слой_x0020_1">
  <metadata id="CorelCorpID_0Corel-Layer"/>
  <g id="_2273633958128">
   <g id="Layer_1">
   </g>
   <g id="Layer_2">
    <g>
     <path class="fil0" d="M10.18 6.31l-2.55 -1.47 0 2.11c0,0.11 -0.02,0.22 -0.06,0.33 -0.03,0.11 -0.08,0.21 -0.15,0.32 -0.2,0.29 -0.51,0.51 -0.88,0.64 -0.2,0.07 -0.4,0.11 -0.61,0.11 -0.56,0 -1.03,-0.29 -1.19,-0.73 -0.13,-0.4 0,-0.84 0.36,-1.19 0.18,-0.18 0.42,-0.32 0.67,-0.41 0.12,-0.04 0.25,-0.07 0.37,-0.09l0 -1.95 -1.64 -0.95c-0.29,-0.16 -0.65,0.04 -0.65,0.37l0 6.56c0,0.33 0.36,0.53 0.65,0.37l5.67 -3.28c0.3,-0.16 0.3,-0.57 0.01,-0.74z"/>
     <path class="fil1" d="M6.36 0c-3.51,0 -6.36,2.85 -6.36,6.36 0,3.51 2.85,6.36 6.36,6.36 3.51,0 6.36,-2.85 6.36,-6.36 0,-3.51 -2.85,-6.36 -6.36,-6.36zm0 11.65c-2.93,0 -5.3,-2.37 -5.3,-5.29 0,-2.92 2.37,-5.3 5.3,-5.3 2.93,0 5.29,2.38 5.29,5.3 0,2.92 -2.36,5.29 -5.29,5.29z"/>
     <path class="fil1" d="M5.31 6.64c-0.27,0.26 -0.39,0.59 -0.28,0.89 0.16,0.45 0.79,0.65 1.42,0.43 0.31,-0.11 0.57,-0.3 0.72,-0.53 0.06,-0.07 0.1,-0.16 0.12,-0.24 0.03,-0.08 0.04,-0.16 0.04,-0.23l0 -3.6 0.33 -0.04 0.91 -0.09 0 -0.9 -1.24 0.14 -0.89 0.09 0 3.65c-0.18,0 -0.38,0.03 -0.57,0.09 -0.22,0.08 -0.41,0.2 -0.56,0.34z"/>
    </g>
   </g>
  </g>
 </g>
</svg>
